<?xml version="1.0" standalone="no"?>
<!DOCTYPE svg PUBLIC "-//W3C//DTD SVG 20010904//EN"
 "http://www.w3.org/TR/2001/REC-SVG-20010904/DTD/svg10.dtd">
<svg version="1.0" xmlns="http://www.w3.org/2000/svg"
 width="482.000000pt" height="482.000000pt" viewBox="0 0 482.000000 482.000000"
 preserveAspectRatio="xMidYMid meet">
<metadata>
Created by potrace 1.14, written by Peter Selinger 2001-2017
</metadata>
<g transform="translate(0.000000,482.000000) scale(0.100000,-0.100000)"
fill="#000000" stroke="none">
<path d="M2615 4815 c6 -2 29 -9 51 -14 37 -10 44 -17 62 -61 l21 -50 -25 -6
c-13 -3 -44 -1 -69 5 -67 17 -75 15 -75 -19 0 -17 -9 -39 -20 -50 -25 -25 -25
-45 0 -63 16 -11 20 -23 17 -53 -4 -38 -2 -41 62 -91 74 -57 107 -106 98 -145
-11 -41 -47 -50 -123 -32 -37 8 -68 14 -70 12 -1 -2 -10 -37 -18 -78 -9 -41
-30 -110 -47 -153 l-31 -77 26 -25 c15 -14 31 -25 37 -25 18 0 49 -40 49 -63
0 -52 -58 -71 -127 -42 -19 8 -37 15 -39 15 -2 0 -20 -32 -39 -71 -92 -182
-307 -461 -517 -671 l-117 -117 15 -37 c12 -29 13 -43 5 -61 -14 -31 -58 -48
-90 -33 -27 12 -39 6 -23 -12 15 -18 42 -98 42 -125 0 -23 -26 -43 -57 -43
-10 0 -46 25 -80 55 -33 30 -66 55 -72 55 -6 0 -41 -15 -78 -34 -38 -19 -115
-55 -173 -81 -58 -26 -188 -89 -290 -141 -202 -102 -398 -175 -539 -200 -123
-21 -298 -44 -343 -44 l-38 0 0 -1120 0 -1120 1108 0 c1044 0 1110 1 1124 18
22 26 58 92 58 106 0 22 47 46 90 46 60 0 48 17 -18 25 l-58 7 -12 54 c-6 29
-25 74 -41 98 -30 44 -30 44 -8 50 12 3 37 6 55 6 l33 0 -36 47 c-19 25 -38
58 -42 72 -9 38 16 74 64 89 39 13 41 15 31 38 -15 32 3 71 36 80 13 3 62 -1
108 -10 47 -9 87 -16 90 -16 7 0 42 79 37 83 -2 2 -35 22 -74 44 -119 70 -155
100 -155 129 0 39 -20 18 -73 -74 -81 -141 -107 -201 -136 -318 -16 -64 -31
-117 -33 -119 -7 -7 -58 8 -58 17 0 5 14 64 31 131 32 130 92 259 183 395 39
59 45 74 37 95 -17 45 29 96 87 97 16 0 41 19 75 57 144 162 220 233 254 238
18 3 50 8 70 11 l38 6 -50 -43 c-76 -64 -287 -280 -280 -287 3 -4 47 -21 97
-39 l92 -33 24 22 c17 17 36 23 78 24 30 1 58 5 62 8 4 4 -7 20 -25 34 -54 47
-68 95 -35 125 25 23 41 21 117 -9 l64 -26 54 48 c51 45 54 50 50 85 -3 20 0
53 7 73 9 30 16 36 38 36 15 -1 38 -7 52 -15 30 -17 50 -19 50 -5 0 5 -30 49
-66 97 -68 91 -70 99 -45 165 7 18 20 28 43 33 18 4 43 14 55 22 12 8 30 13
40 11 14 -2 9 -9 -19 -26 -21 -13 -38 -27 -38 -30 0 -4 28 -27 61 -51 66 -48
89 -45 89 10 0 42 26 62 70 55 35 -5 43 0 231 157 108 89 220 180 250 203 109
82 262 161 377 195 38 11 58 29 32 29 -18 0 -359 -140 -465 -191 -55 -26 -129
-66 -164 -89 -35 -22 -65 -40 -67 -38 -1 2 0 22 3 46 5 41 8 43 93 92 47 27
111 55 141 61 61 13 99 30 147 66 42 31 279 119 392 144 47 11 144 22 215 25
114 6 132 5 144 -10 24 -29 -3 -46 -75 -46 -78 0 -260 -26 -283 -41 -17 -11
-6 -10 149 16 47 8 122 15 168 15 l82 0 0 1200 0 1200 -1107 -1 c-610 0 -1103
-2 -1098 -4z"/>
<path d="M2455 4708 c11 -6 23 -15 26 -21 12 -17 -3 -102 -20 -115 -14 -12
-14 -15 9 -32 14 -11 28 -20 31 -20 4 0 9 28 13 63 4 34 10 79 13 100 l6 37
-49 0 c-42 -1 -46 -2 -29 -12z"/>
<path d="M1120 4499 c8 -5 29 -17 45 -25 l30 -15 -28 25 c-15 15 -36 26 -45
26 -15 0 -15 -2 -2 -11z"/>
<path d="M1470 4454 c58 -37 170 -97 170 -90 0 10 -189 126 -205 126 -13 0 -1
-13 35 -36z"/>
<path d="M2148 4313 c11 -21 25 -56 32 -78 7 -23 37 -66 69 -100 31 -33 74
-80 96 -105 l39 -44 23 52 c21 49 44 129 57 199 5 31 3 33 -34 44 -30 9 -46 9
-65 1 -27 -13 -63 -3 -149 42 -27 14 -58 26 -68 26 -18 0 -18 -1 0 -37z"/>
<path d="M30 4289 c0 -25 6 -53 14 -64 12 -17 13 -17 20 8 4 18 0 39 -13 65
l-20 37 -1 -46z"/>
<path d="M1167 4279 c7 -7 15 -10 18 -7 3 3 -2 9 -12 12 -14 6 -15 5 -6 -5z"/>
<path d="M1080 3996 c14 -13 90 -81 170 -151 149 -130 212 -177 154 -114 -16
19 -65 73 -108 121 -61 68 -94 96 -153 128 -86 46 -97 49 -63 16z"/>
<path d="M1915 3905 c69 -33 109 -42 103 -24 -5 14 -53 31 -118 42 -32 5 -31
4 15 -18z"/>
<path d="M1660 3914 c0 -8 13 -18 110 -86 69 -48 73 -50 52 -21 -13 18 -35 41
-50 51 -38 27 -112 64 -112 56z"/>
<path d="M2117 3836 c4 -29 1 -37 -22 -52 -14 -9 -42 -17 -62 -16 -32 1 -34 0
-22 -17 8 -10 35 -46 62 -81 26 -34 47 -70 47 -80 0 -10 6 -23 14 -29 11 -9
23 3 63 66 62 97 117 193 112 197 -5 4 -176 46 -188 46 -5 0 -7 -15 -4 -34z"/>
<path d="M1541 3753 c44 -57 123 -148 130 -151 5 -2 -4 24 -20 59 -21 46 -38
67 -67 85 -46 28 -62 31 -43 7z"/>
<path d="M92 3670 c0 -14 2 -19 5 -12 2 6 2 18 0 25 -3 6 -5 1 -5 -13z"/>
<path d="M1850 3490 c79 -172 89 -192 100 -185 5 3 37 40 71 83 87 108 83 101
60 95 -14 -4 -62 18 -146 66 -69 39 -129 71 -134 71 -5 0 17 -58 49 -130z"/>
<path d="M6 3348 c-10 -40 -7 -56 18 -85 l25 -28 -5 50 c-3 27 -12 57 -19 67
-12 18 -13 18 -19 -4z"/>
<path d="M1450 3340 c0 -17 99 -171 158 -245 30 -38 57 -72 58 -74 5 -6 89 69
131 117 l41 49 -69 27 c-60 23 -74 26 -102 16 -44 -16 -88 4 -152 69 -49 50
-65 61 -65 41z"/>
<path d="M278 3248 c7 -30 72 -127 72 -108 -1 41 -21 96 -42 112 -31 23 -37
22 -30 -4z"/>
<path d="M1 2839 c-1 -43 5 -94 14 -118 8 -22 12 -41 9 -41 -2 0 0 -9 6 -19 5
-11 12 -37 16 -58 3 -21 10 -56 15 -78 21 -96 4 -177 -39 -183 -12 -2 -22 -9
-22 -16 0 -12 14 -11 345 33 63 9 287 73 304 87 3 3 -211 238 -277 304 l-25
25 20 -35 c46 -79 123 -235 123 -250 0 -27 -36 -53 -63 -47 -22 6 -120 102
-225 221 -52 60 -52 60 -52 29 0 -36 -20 -56 -52 -51 -21 3 -27 18 -60 138
l-37 135 0 -76z"/>
<path d="M870 2848 c0 -8 4 -18 9 -23 6 -6 12 -23 15 -38 3 -16 10 -44 17 -64
22 -69 -5 -132 -58 -133 -25 0 -28 -7 -14 -30 8 -11 41 1 188 71 98 48 197 94
221 104 23 10 42 21 42 24 0 3 -22 25 -49 48 l-48 42 4 -44 c5 -38 2 -45 -21
-60 -37 -24 -64 -14 -129 49 -54 52 -57 54 -86 43 -26 -9 -36 -8 -61 6 -23 14
-30 15 -30 5z"/>
<path d="M1357 2816 c3 -16 10 -23 19 -19 17 6 18 15 2 31 -19 19 -26 14 -21
-12z"/>
<path d="M670 2620 c0 -5 5 -10 11 -10 5 0 7 5 4 10 -3 6 -8 10 -11 10 -2 0
-4 -4 -4 -10z"/>
<path d="M700 2577 c0 -4 4 -15 10 -25 5 -9 14 -29 20 -44 6 -19 14 -26 25
-22 8 3 15 9 15 13 -1 9 -70 87 -70 78z"/>
<path d="M4615 2321 c-47 -7 -55 -27 -26 -62 14 -18 27 -23 53 -21 33 3 35 1
75 -75 38 -73 43 -78 69 -75 39 5 39 6 26 51 -15 47 -15 88 -2 96 6 3 10 26
10 51 l0 44 -82 -1 c-46 -1 -101 -5 -123 -8z"/>
<path d="M4262 2225 c-97 -39 -238 -117 -282 -154 l-31 -26 25 -36 24 -35 119
39 120 39 -5 49 c-9 91 39 105 115 34 50 -48 52 -49 69 -37 14 8 -45 162 -61
161 -5 0 -48 -15 -93 -34z"/>
<path d="M3707 1854 c-81 -64 -147 -122 -147 -127 0 -5 10 -3 23 5 60 39 230
140 262 155 38 18 41 26 21 62 -13 23 -14 23 -159 -95z"/>
<path d="M4422 1859 c9 -27 12 -29 20 -15 6 11 6 22 -2 32 -21 24 -30 16 -18
-17z"/>
<path d="M3993 1683 c9 -9 19 -14 23 -11 10 10 -6 28 -24 28 -15 0 -15 -1 1
-17z"/>
<path d="M4207 1693 c-7 -12 66 -175 106 -235 43 -64 136 -168 137 -152 1 33
-39 109 -117 222 -109 159 -120 175 -126 165z"/>
<path d="M3830 1600 c-13 -9 -12 -12 4 -25 19 -15 56 -21 56 -9 0 3 -5 14 -10
25 -12 21 -27 24 -50 9z"/>
<path d="M4067 1474 c-11 -12 12 -41 49 -63 l36 -21 -20 27 c-27 38 -57 64
-65 57z"/>
<path d="M3620 1284 c40 -40 107 -81 117 -71 4 5 -143 117 -154 117 -4 0 13
-21 37 -46z"/>
<path d="M3182 1231 c-29 -39 -10 -51 23 -14 28 32 31 43 12 43 -7 0 -23 -13
-35 -29z"/>
<path d="M3287 1162 c-9 -10 -17 -21 -17 -24 0 -3 28 -22 63 -43 60 -36 148
-70 146 -57 0 8 -153 135 -166 139 -5 2 -17 -5 -26 -15z"/>
<path d="M2599 986 c43 -45 121 -70 121 -38 0 9 -116 62 -134 62 -5 0 1 -11
13 -24z"/>
<path d="M2815 890 c-8 -13 -9 -12 29 -28 31 -14 59 -1 41 17 -17 16 -62 23
-70 11z"/>
<path d="M2860 650 c0 -5 5 -10 10 -10 6 0 10 5 10 10 0 6 -4 10 -10 10 -5 0
-10 -4 -10 -10z"/>
<path d="M4542 649 c5 -15 68 -53 68 -41 0 11 -52 52 -65 52 -4 0 -5 -5 -3
-11z"/>
<path d="M2974 629 c-3 -5 6 -9 20 -9 31 0 34 6 6 13 -11 3 -23 1 -26 -4z"/>
</g>
</svg>
